<?xml version="1.0" standalone="no"?>
<!DOCTYPE svg PUBLIC "-//W3C//DTD SVG 20010904//EN"
 "http://www.w3.org/TR/2001/REC-SVG-20010904/DTD/svg10.dtd">
<svg version="1.0" xmlns="http://www.w3.org/2000/svg"
 width="212.000000pt" height="59.000000pt" viewBox="0 0 212.000000 59.000000"
 preserveAspectRatio="xMidYMid meet">

<g transform="translate(0.000000,59.000000) scale(0.100000,-0.100000)"
fill="#000000" stroke="none">
<path d="M160 465 c0 -21 -5 -25 -30 -25 l-30 0 0 -86 0 -85 28 3 c27 3 27 4
30 81 l3 77 54 0 c52 0 55 -1 55 -25 0 -20 5 -25 25 -25 21 0 25 5 25 30 0 25
-4 30 -25 30 -20 0 -25 5 -25 25 0 24 -3 25 -55 25 -52 0 -55 -1 -55 -25z"/>
<path d="M490 460 c0 -30 1 -30 55 -30 l55 0 0 -196 0 -195 28 3 27 3 3 193 2
192 55 0 c54 0 55 0 55 30 l0 30 -140 0 -140 0 0 -30z"/>
<path d="M1040 465 c0 -20 -5 -25 -25 -25 -24 0 -25 -3 -25 -55 0 -52 1 -55
25 -55 23 0 25 3 25 50 0 49 1 50 30 50 29 0 30 -1 30 -50 0 -47 2 -50 25 -50
24 0 25 3 25 55 0 52 -1 55 -25 55 -20 0 -25 5 -25 25 0 21 -5 25 -30 25 -25
0 -30 -4 -30 -25z"/>
<path d="M1370 270 l0 -220 30 0 c30 0 30 1 30 55 0 52 1 55 25 55 21 0 25 -5
25 -30 0 -27 3 -30 30 -30 25 0 30 -4 30 -25 0 -20 5 -25 25 -25 21 0 25 5 25
30 0 25 -4 30 -25 30 -20 0 -25 5 -25 25 0 21 -5 25 -30 25 -25 0 -30 4 -30
25 0 21 5 25 30 25 27 0 30 3 30 30 0 25 4 30 25 30 24 0 25 3 25 55 0 52 -1
55 -25 55 -21 0 -25 5 -25 30 0 27 -3 30 -30 30 -25 0 -30 4 -30 25 0 24 -3
25 -55 25 l-55 0 0 -220z m110 135 c0 -21 5 -25 30 -25 30 0 30 -1 30 -55 0
-54 0 -55 -30 -55 -25 0 -30 -4 -30 -25 0 -20 -5 -25 -25 -25 l-25 0 0 105 0
105 25 0 c20 0 25 -5 25 -25z"/>
<path d="M1760 460 c0 -30 1 -30 55 -30 l55 0 0 -196 0 -195 28 3 27 3 3 193
2 192 55 0 c54 0 55 0 55 30 l0 30 -140 0 -140 0 0 -30z"/>
<path d="M930 185 l0 -146 28 3 c27 3 27 4 30 86 l3 82 79 0 80 0 0 -86 0 -85
28 3 27 3 0 140 0 140 -25 0 c-20 0 -26 -6 -28 -27 -3 -28 -4 -28 -82 -28 -78
0 -79 0 -82 28 -2 21 -9 28 -30 30 l-28 3 0 -146z"/>
<path d="M160 240 c0 -30 1 -30 55 -30 l55 0 0 -50 0 -50 -55 0 c-52 0 -55 1
-55 25 0 21 -5 25 -30 25 -27 0 -30 -3 -30 -30 0 -27 3 -30 30 -30 25 0 30 -4
30 -25 0 -24 3 -25 55 -25 52 0 55 1 55 25 0 20 5 25 25 25 24 0 25 3 25 55 0
52 -1 55 -25 55 -21 0 -25 5 -25 30 0 30 -1 30 -55 30 -54 0 -55 0 -55 -30z"/>
</g>
</svg>
